<?xml version="1.0" standalone="no"?>
<!DOCTYPE svg PUBLIC "-//W3C//DTD SVG 20010904//EN"
 "http://www.w3.org/TR/2001/REC-SVG-20010904/DTD/svg10.dtd">
<svg version="1.0" xmlns="http://www.w3.org/2000/svg"
 width="1707.000000pt" height="1707.000000pt" viewBox="0 0 1707.000000 1707.000000"
 preserveAspectRatio="xMidYMid meet">
<metadata>
Created by potrace 1.11, written by Peter Selinger 2001-2013
</metadata>
<g transform="translate(0.000000,1707.000000) scale(0.100000,-0.100000)"
fill="#000000" stroke="none">
<path d="M5977 11758 c-318 -24 -604 -152 -812 -363 -225 -227 -336 -499 -338
-825 -2 -231 28 -368 124 -575 65 -142 212 -317 354 -423 121 -90 357 -194
493 -217 129 -21 188 -27 272 -27 330 0 688 146 945 385 l79 74 -54 58 c-146
154 -201 194 -304 221 -106 28 -210 15 -339 -45 -115 -53 -197 -71 -306 -67
-153 6 -287 66 -381 173 -40 45 -98 136 -100 158 -1 6 -5 15 -10 20 -8 10 -26
63 -36 106 -11 45 -13 214 -2 269 56 305 294 506 578 487 91 -6 165 -28 262
-77 86 -44 157 -60 247 -56 158 8 273 84 425 283 l19 24 -39 40 c-96 100 -292
224 -449 284 -213 83 -404 111 -628 93z"/>
<path d="M97 11733 c-2 -5 -3 -541 -3 -1193 l2 -1185 746 -1 c559 0 762 3 808
12 159 33 298 141 374 293 27 53 55 161 56 214 l0 27 -635 0 -635 0 2 187 3
188 330 1 c244 0 342 4 375 14 25 8 47 14 50 14 3 1 32 14 65 30 80 39 202
161 238 238 31 68 57 163 57 212 l0 36 -560 0 -560 0 0 185 0 185 373 1 c204
0 384 2 398 4 239 32 439 241 465 486 l6 59 -975 0 c-537 0 -978 -3 -980 -7z"/>
<path d="M2423 10548 l2 -1193 103 -2 c63 0 124 5 159 14 185 48 328 192 377
378 12 49 15 135 16 484 0 234 2 426 3 428 2 1 75 -97 163 -218 87 -121 167
-230 176 -242 9 -12 76 -103 148 -202 72 -99 138 -189 146 -200 8 -11 83 -114
167 -230 l153 -210 327 -3 327 -2 0 1196 0 1197 -122 -6 c-178 -7 -275 -46
-378 -150 -57 -57 -90 -109 -123 -190 -21 -50 -22 -70 -27 -516 l-5 -464 -131
179 c-141 192 -521 716 -563 775 -14 20 -80 111 -146 202 l-120 166 -327 1
-327 0 2 -1192z"/>
<path d="M8271 11719 c-295 -51 -534 -167 -720 -351 -147 -144 -270 -367 -310
-560 -6 -29 -14 -64 -17 -78 -13 -58 -16 -282 -5 -366 65 -495 404 -877 895
-1009 50 -13 111 -27 136 -31 25 -3 70 -10 100 -14 63 -9 278 -6 360 5 94 12
245 52 337 89 77 32 225 110 257 137 6 5 29 23 51 40 82 62 189 177 250 269
97 145 141 252 181 435 19 87 25 300 12 405 -47 374 -267 693 -608 883 -124
69 -273 118 -447 148 -112 20 -353 18 -472 -2z m409 -603 c255 -86 409 -329
395 -626 -8 -178 -66 -318 -180 -436 -39 -40 -150 -112 -185 -121 -14 -3 -29
-8 -35 -12 -12 -6 -20 -8 -97 -19 -31 -5 -62 -8 -70 -7 -7 1 -38 5 -69 8 -158
18 -318 129 -413 286 -133 219 -115 532 42 731 77 97 198 177 310 205 87 21
224 17 302 -9z"/>
<path d="M14730 10521 c0 -946 3 -1191 13 -1192 6 -1 166 -2 354 -3 l343 -1 0
313 c0 173 2 317 4 321 5 7 363 8 369 1 2 -3 50 -98 106 -212 87 -177 111
-216 159 -265 63 -64 167 -124 248 -143 40 -9 528 -18 598 -11 5 1 2 9 -6 19
-8 9 -18 24 -22 32 -3 8 -14 27 -24 42 -9 14 -29 46 -43 70 -14 23 -105 171
-202 327 l-177 284 51 34 c157 103 267 264 320 468 20 77 23 114 23 255 -1
191 -17 270 -83 405 -107 215 -296 348 -596 418 -86 19 -122 21 -762 24 l-673
4 0 -1190z m1237 624 c74 -22 132 -70 168 -140 28 -54 30 -66 30 -165 0 -99
-2 -111 -30 -165 -19 -37 -46 -72 -73 -92 -74 -56 -124 -65 -383 -65 -127 0
-232 2 -234 4 -4 4 -6 183 -5 473 l0 170 237 -3 c174 -2 252 -6 290 -17z"/>
<path d="M10057 11692 c-3 -4 -5 -421 -5 -927 1 -1016 -1 -992 64 -1124 68
-139 212 -250 370 -287 59 -13 121 -15 419 -10 192 3 361 7 375 9 14 3 45 8
70 12 308 45 599 208 768 430 95 126 178 295 197 405 3 19 8 36 10 39 5 9 16
84 24 169 13 135 0 304 -33 436 -95 371 -351 647 -719 772 -85 29 -136 41
-287 70 -49 9 -1248 15 -1253 6z m1163 -566 c207 -54 361 -225 404 -451 19
-101 15 -277 -8 -365 -42 -160 -140 -292 -262 -357 -97 -51 -130 -56 -371 -59
-200 -1 -223 0 -224 15 0 9 -1 291 -2 627 l-2 610 200 -2 c150 -1 216 -6 265
-18z"/>
<path d="M12610 10506 l0 -1193 768 2 767 2 73 25 c157 56 276 167 333 309 25
65 28 78 36 152 l6 57 -637 0 -636 0 0 188 0 187 328 1 c348 0 379 3 481 51
150 70 256 199 296 360 13 56 18 94 16 121 -1 9 -120 12 -561 12 l-560 0 0
185 0 185 328 1 c180 0 348 0 373 -1 120 -4 282 65 378 161 90 89 160 246 161
357 l0 32 -975 0 -975 0 0 -1194z"/>
<path d="M15548 8576 c-1 -2 -32 -6 -68 -10 -36 -3 -75 -8 -86 -10 -12 -2 -37
-7 -55 -10 -246 -40 -502 -163 -659 -316 -122 -119 -177 -205 -229 -357 -68
-198 -63 -456 12 -641 115 -283 378 -456 907 -596 153 -41 160 -43 329 -91
266 -77 372 -156 374 -279 5 -251 -379 -289 -889 -90 -153 60 -223 77 -330 79
-183 3 -373 -73 -495 -198 -57 -59 -81 -92 -127 -171 l-39 -70 46 -35 c97 -76
213 -144 365 -216 791 -377 1750 -339 2184 85 194 189 274 394 267 685 -1 77
-6 150 -9 163 -3 12 -8 30 -10 40 -34 150 -110 286 -217 388 -187 177 -415
279 -914 410 -236 62 -388 127 -457 195 -51 51 -64 91 -55 161 17 124 215 173
467 117 25 -6 52 -12 60 -14 33 -7 110 -29 210 -60 165 -51 257 -58 405 -30
44 9 123 37 155 56 8 5 24 13 35 18 35 15 118 81 164 130 54 57 98 125 141
216 18 39 34 73 37 77 8 14 -172 114 -312 173 -116 48 -278 102 -369 120 -10
3 -33 9 -50 14 -17 6 -47 13 -66 16 -19 3 -62 11 -95 17 -138 25 -270 36 -442
36 -99 0 -183 -1 -185 -2z"/>
<path d="M9 8551 c0 -21 0 -3171 0 -3191 1 -13 186 -15 1611 -15 l1610 0 0
1611 0 1611 -1610 0 c-1468 0 -1610 -1 -1611 -16z"/>
<path d="M5320 8513 c-12 -27 -64 -149 -117 -273 -52 -124 -103 -243 -113
-265 -10 -22 -116 -269 -235 -550 -281 -662 -474 -1112 -490 -1150 -8 -16 -59
-136 -113 -265 -55 -129 -128 -300 -163 -380 -34 -80 -74 -175 -89 -211 l-28
-67 276 2 c318 3 362 10 507 81 152 74 272 190 349 338 18 34 35 68 37 75 4
11 117 13 604 13 330 0 621 0 646 0 45 -1 47 -2 63 -43 28 -68 105 -179 166
-239 73 -71 130 -110 223 -154 135 -64 161 -68 495 -73 194 -2 302 0 302 6 0
5 -40 106 -88 223 -49 118 -131 315 -182 439 -51 124 -98 239 -106 255 -7 17
-49 118 -92 225 -115 282 -596 1449 -641 1555 -21 50 -76 183 -122 297 l-84
207 -492 1 -492 0 -21 -47z m585 -1193 c188 -515 264 -725 267 -740 3 -13 -47
-15 -378 -15 l-382 0 10 25 c5 14 70 187 144 385 74 198 139 369 144 380 5 11
18 46 29 78 50 137 65 171 69 157 2 -8 46 -130 97 -270z"/>
<path d="M8112 6954 l0 -1606 197 4 c177 5 204 8 276 31 111 37 196 90 279
173 85 85 129 155 166 266 35 102 39 132 40 279 l0 116 303 1 c262 0 470 7
487 17 3 2 24 6 46 9 166 25 351 92 479 174 227 146 407 407 451 655 2 17 6
33 8 36 4 6 15 84 22 151 2 19 4 91 5 160 3 460 -186 797 -551 984 -113 58
-290 114 -420 132 -19 3 -48 8 -65 11 -16 4 -411 8 -877 10 l-846 4 0 -1607z
m1587 847 c113 -39 183 -100 228 -198 33 -72 36 -85 39 -203 2 -92 -1 -115
-24 -183 -41 -119 -111 -191 -233 -239 -50 -19 -78 -22 -346 -26 l-293 -4 0
434 c0 239 2 437 4 439 2 2 130 3 283 3 258 -1 283 -3 342 -23z"/>
<path d="M11380 6948 l0 -1608 188 4 c197 4 250 13 355 60 153 67 285 199 352
350 41 93 57 174 61 315 2 74 5 136 7 137 1 1 166 4 367 7 201 3 381 8 400 11
546 89 876 365 988 826 31 125 37 188 37 360 0 151 -3 190 -24 297 -47 240
-192 468 -387 610 -122 89 -343 175 -532 208 -149 25 -213 27 -1024 29 l-788
1 0 -1607z m1598 842 c170 -61 256 -199 256 -410 0 -111 -21 -190 -70 -265
-48 -72 -128 -130 -209 -150 -16 -4 -39 -9 -50 -12 -11 -3 -143 -7 -292 -9
l-273 -3 -1 37 c-1 46 -1 753 0 805 l1 39 288 -4 c268 -4 291 -6 350 -28z"/>
</g>
</svg>
