<?xml version="1.0"?>
<svg xmlns="http://www.w3.org/2000/svg" width="512" height="512" viewBox="0 0 512 512"><g><path d="M416.97,319.01a24.046,24.046,0,0,0-25.8-5.33A23.995,23.995,0,0,0,368,296V36A28.031,28.031,0,0,0,340,8H108A28.031,28.031,0,0,0,80,36V476a28.031,28.031,0,0,0,28,28H400a8,8,0,0,0,8-8V459.31l13.66-13.65A8.008,8.008,0,0,0,424,440V336A23.924,23.924,0,0,0,416.97,319.01ZM261.75,24l-4,16h-67.5l-4-16Zm34.27,464H108a12.01,12.01,0,0,1-12-12V36a12.01,12.01,0,0,1,12-12h61.75l6.49,25.94A8,8,0,0,0,184,56h80a8,8,0,0,0,7.76-6.06L278.25,24H340a12.01,12.01,0,0,1,12,12V294.1a24.036,24.036,0,0,0-24-4.73V249.62a111.985,111.985,0,1,0-48,55.39v35.67c-.07-.13-.13-.26-.21-.38a24,24,0,0,0-41.65,23.86l42.95,80.19a7.982,7.982,0,0,0,1.49,1.98l13.53,13.06ZM320,208a96.142,96.142,0,0,1-2.17,20.38A24.006,24.006,0,0,0,280,248v37.98A94.977,94.977,0,0,1,224,304a96,96,0,1,1,96-96Zm88,228.69-13.66,13.65A8.008,8.008,0,0,0,392,456v32H312.02l.1-31.98a8,8,0,0,0-2.44-5.77L294.6,435.69l-42.41-79.18-.12-.21a8.033,8.033,0,0,1,2.94-10.95,7.868,7.868,0,0,1,3.98-1.07,8.031,8.031,0,0,1,6.84,3.84l15.02,29.97A8,8,0,0,0,296,374.51V248a8,8,0,1,1,16,0V352a8,8,0,0,0,16,0V312a8,8,0,1,1,16,0v40a8,8,0,0,0,16,0V320a8,8,0,1,1,16,0v32a8,8,0,0,0,16,0V336a8,8,0,1,1,16,0Z"/><path d="M211.2,237.341A32.007,32.007,0,0,1,224,176a8,8,0,0,0,0-16,48.006,48.006,0,0,0-19.2,92,8,8,0,1,0,6.406-14.661Z"/><circle cx="224" cy="208" r="16"/></g></svg>
