<svg id="Capa_1" enable-background="new 0 0 512 512" height="512" viewBox="0 0 512 512" width="512" xmlns="http://www.w3.org/2000/svg"><g><g><path d="m504.5 151v269.5c0 16.57-13.43 30-30 30h-435.638c-16.57 0-30-13.43-30-30v-269.5l254.989-10z" fill="#f9f8f8"/><path d="m7.5 151h497v20h-497z" fill="#ede8e5"/><path d="m57.5 450.5h-20c-16.57 0-30-13.43-30-30v-269.5h20v269.5c0 16.57 13.43 30 30 30z" fill="#ede8e5"/><path d="m504.5 91.5v59.5h-497v-59.5c0-16.57 13.43-30 30-30h437c16.57 0 30 13.43 30 30z" fill="#5f6c75"/><g><g fill="#4e5a61"><path d="m235.258 133.5c-8.255 0-14.947-6.716-14.947-15s6.692-15 14.947-15h208.315c8.255 0 14.947 6.716 14.947 15s-6.692 15-14.947 15z"/><ellipse cx="168.369" cy="118.5" rx="14.947" ry="15"/><path d="m178.861 129.184 12.874-12.869-13.139 1.179z"/><path d="m158.092 107.608 12.562-12.516-2.693 10.408z"/><ellipse cx="105.534" cy="118.5" rx="14.947" ry="15"/><path d="m116.053 129.157 12.382-12.499-12.674.836z"/><path d="m95.257 107.608 12.371-12.459-2.502 10.351z"/><ellipse cx="40.447" cy="118.5" rx="14.947" ry="15"/><path d="m51.269 128.846 12.721-13.186-13.139 1.381z"/><path d="m30.17 107.608 11.622-12.038-1.753 9.93z"/></g><ellipse cx="181.349" cy="105.5" fill="#aef2ab" rx="14.947" ry="15"/><path d="m225.014 107.577 12.971-12.991-3.025 14.276z" fill="#4e5a61"/><path d="m454.33 128.915 13.149-13.179-10.185 3.381z" fill="#4e5a61"/><ellipse cx="118.446" cy="105.5" fill="#f0c585" rx="14.947" ry="15"/><ellipse cx="52.995" cy="105.5" fill="#bf4a55" rx="14.947" ry="15"/><path d="m248.237 120.5c-8.255 0-14.947-6.716-14.947-15s6.692-15 14.947-15h208.315c8.255 0 14.947 6.716 14.947 15s-6.692 15-14.947 15z" fill="#f9f8f8"/></g><g><g><path d="m412.793 394.33c-2.62 1.84-5.63 2.73-8.62 2.73-4.71 0-9.36-2.22-12.28-6.37l-45.103-64.111c-1.991-2.83-6.185-2.831-8.177-.002l-45.17 64.123c-2.93 4.14-7.57 6.36-12.28 6.36-2.99 0-6-.89-8.63-2.74-6.77-4.77-8.39-14.13-3.62-20.9l53.423-75.843c1.216-1.726 1.216-4.029.002-5.756l-45.195-64.251c-4.76-6.77-3.14-16.13 3.64-20.9 6.78-4.76 16.13-3.14 20.9 3.64l36.953 52.53c1.991 2.83 6.185 2.831 8.177.002l37.009-52.543c4.77-6.77 14.13-8.39 20.9-3.62 6.78 4.77 8.4 14.13 3.63 20.9l-45.263 64.263c-1.216 1.726-1.216 4.029-.002 5.756l53.345 75.831c4.771 6.771 3.141 16.131-3.639 20.901z" fill="#f7f06d"/></g></g><g><g fill="#ede8e5"><path d="m125.35 386.1c8.64 5.52 18.14 8.98 28.34 10.32-3.3.43-6.67.64-10.11.64h-.11c-13.95-.02-26.77-3.71-38.12-10.96-21.88-13.98-32.52-31.94-32.52-54.92v-112.24c0-8.28 6.72-15 15-15 3.85 0 7.34 1.44 10 3.82-3.07 2.75-5 6.74-5 11.18v112.24c0 22.98 10.64 40.94 32.52 54.92z"/><path d="m211.18 207.77c-3.07 2.74-5 6.73-5 11.17v112.13c0 8.63-2.34 21.27-22.49 31.43-6.01 3.02-12.78 4.56-20.11 4.56h-.07c-3.42 0-6.66-.36-9.75-1.07 3.5-.76 6.82-1.93 9.93-3.49 20.15-10.16 22.49-22.8 22.49-31.43v-112.13c0-8.28 6.71-15 15-15 3.84 0 7.35 1.45 10 3.83z"/></g></g><g><g fill="#ede8e5"><path d="m322.34 291.82c1.21 1.73 1.21 4.03 0 5.76l-53.43 75.84c-4.43 6.29-3.35 14.81 2.26 19.82-2.79 2.5-6.38 3.82-10.01 3.82-2.99 0-6-.89-8.63-2.74-6.77-4.77-8.39-14.13-3.62-20.9l53.43-75.84c1.21-1.73 1.21-4.03 0-5.76l-45.2-64.25c-4.76-6.77-3.14-16.13 3.64-20.9 5.83-4.09 13.55-3.47 18.63 1.09-5.61 5-6.69 13.52-2.27 19.81z"/><path d="m338.64 262.84-5.91-8.4 31.09-44.14c4.77-6.77 14.13-8.39 20.9-3.62.48.34.94.7 1.37 1.08-.84.74-1.6 1.59-2.27 2.54l-37.01 52.54c-1.99 2.83-6.18 2.83-8.17 0z"/><path d="m394.16 393.24c-.43.39-.89.75-1.37 1.09-2.62 1.84-5.63 2.73-8.62 2.73-4.71 0-9.36-2.22-12.28-6.37l-39.19-55.71 5.91-8.4c2-2.83 6.19-2.83 8.18 0l45.1 64.11c.67.95 1.43 1.8 2.27 2.55z"/></g></g><path d="m143.47 397.06 19.998-.001-11.957-6.357z" fill="#ede8e5"/><path d="m201.18 203.94 19.996.001-9.998 10.08z" fill="#ede8e5"/><path d="m87.83 203.94 20.002.001-11.811 10.08z" fill="#ede8e5"/><g><g><path d="m163.582 397.059c-.038 0-.076 0-.114 0-13.944-.019-26.771-3.706-38.122-10.959-21.878-13.977-32.514-31.94-32.514-54.916v-112.243c0-8.284 6.716-15 15-15s15 6.716 15 15v112.243c0 12.58 5.408 21.166 18.665 29.635 6.555 4.188 13.754 6.229 22.012 6.24h.072c7.33 0 14.095-1.535 20.107-4.563 20.156-10.152 22.487-22.8 22.487-31.43v-112.125c0-8.284 6.716-15 15-15s15 6.716 15 15v112.126c0 17.602-6.765 41.992-38.994 58.224-10.237 5.155-21.54 7.768-33.599 7.768z" fill="#f7f06d"/></g></g><g fill="#ede8e5"><path d="m269.509 203.941h19.733l-12.734 7.351-6.999-6.632"/><path d="m376.191 203.94 20.085.005-12.456 6.355z"/><path d="m261.16 397.06h20.003l-10.002-5.486z"/><path d="m384.17 397.06h20.003l-10.96-7.549z"/></g><g><g><path d="m412.793 394.33c-2.62 1.84-5.63 2.73-8.62 2.73-4.71 0-9.36-2.22-12.28-6.37l-45.103-64.111c-1.991-2.83-6.185-2.831-8.177-.002l-45.17 64.123c-2.93 4.14-7.57 6.36-12.28 6.36-2.99 0-6-.89-8.63-2.74-6.77-4.77-8.39-14.13-3.62-20.9l53.423-75.843c1.216-1.726 1.216-4.029.002-5.756l-45.195-64.251c-4.76-6.77-3.14-16.13 3.64-20.9 6.78-4.76 16.13-3.14 20.9 3.64l36.953 52.53c1.991 2.83 6.185 2.831 8.177.002l37.009-52.543c4.77-6.77 14.13-8.39 20.9-3.62 6.78 4.77 8.4 14.13 3.63 20.9l-45.263 64.263c-1.216 1.726-1.216 4.029-.002 5.756l53.345 75.831c4.771 6.771 3.141 16.131-3.639 20.901z" fill="#f7f06d"/></g></g></g><g><path d="m52.913 83.5c-12.391 0-22.472 10.093-22.472 22.5s10.081 22.5 22.472 22.5 22.471-10.093 22.471-22.5-10.08-22.5-22.471-22.5zm0 30c-4.12 0-7.472-3.364-7.472-7.5s3.352-7.5 7.472-7.5c4.119 0 7.471 3.364 7.471 7.5s-3.352 7.5-7.471 7.5z"/><path d="m117.788 83.5c-12.391 0-22.472 10.093-22.472 22.5s10.081 22.5 22.472 22.5 22.471-10.093 22.471-22.5-10.08-22.5-22.471-22.5zm0 30c-4.12 0-7.472-3.364-7.472-7.5s3.352-7.5 7.472-7.5c4.119 0 7.471 3.364 7.471 7.5s-3.352 7.5-7.471 7.5z"/><path d="m180.792 83.5c-12.391 0-22.472 10.093-22.472 22.5s10.081 22.5 22.472 22.5 22.471-10.093 22.471-22.5-10.08-22.5-22.471-22.5zm0 30c-4.12 0-7.472-3.364-7.472-7.5s3.352-7.5 7.472-7.5c4.119 0 7.471 3.364 7.471 7.5s-3.352 7.5-7.471 7.5z"/><path d="m479.856 106c0-12.407-10.081-22.5-22.472-22.5h-209.596c-12.391 0-22.472 10.093-22.472 22.5s10.081 22.5 22.472 22.5h209.597c12.39 0 22.471-10.093 22.471-22.5zm-22.471 7.5h-209.597c-4.12 0-7.472-3.364-7.472-7.5s3.352-7.5 7.472-7.5h209.597c4.12 0 7.472 3.364 7.472 7.5s-3.352 7.5-7.472 7.5z"/><path d="m403.799 342.435c-2.382-3.386-7.059-4.202-10.449-1.819-3.388 2.383-4.202 7.062-1.818 10.45l18.771 26.684c2.389 3.244 1.518 8.196-1.82 10.443-3.26 2.39-8.196 1.518-10.455-1.818l-45.104-64.112c-2.338-3.322-6.158-5.306-10.22-5.307-.002 0-.002 0-.004 0-4.06 0-7.88 1.982-10.219 5.301l-45.16 64.111c-2.276 3.34-7.201 4.219-10.468 1.821-3.38-2.381-4.191-7.069-1.809-10.45l53.423-75.843c3.031-4.303 3.032-10.086.005-14.39l-45.194-64.25c-2.379-3.383-1.563-8.072 1.814-10.448 3.389-2.378 8.078-1.563 10.457 1.816l36.952 52.531c2.337 3.322 6.158 5.307 10.22 5.308h.004c4.062 0 7.882-1.982 10.22-5.302l37.009-52.542c2.257-3.342 7.203-4.199 10.454-1.806 3.345 2.252 4.203 7.2 1.813 10.447l-45.264 64.263c-3.031 4.303-3.032 10.086-.004 14.39l14.431 20.514c2.383 3.387 7.06 4.204 10.449 1.819 3.388-2.383 4.202-7.062 1.818-10.45l-13.418-19.074 44.25-62.824c7.171-9.742 4.592-24.597-5.441-31.351-9.74-7.169-24.592-4.597-31.352 5.433l-34.964 49.639-34.91-49.626c-7.133-10.137-21.191-12.587-31.35-5.458-10.146 7.138-12.595 21.201-5.459 31.349l44.183 62.812-52.409 74.404c-7.146 10.142-4.709 24.205 5.436 31.354 9.774 7.166 24.54 4.575 31.357-5.435l43.124-61.22 43.061 61.207c6.776 10.015 21.58 12.616 31.349 5.458 10.036-6.753 12.628-21.608 5.459-31.35z"/><path d="m221.176 196.441c-12.406 0-22.5 10.093-22.5 22.5v112.125c0 7.657-2.182 16.583-18.36 24.731-4.956 2.496-10.586 3.761-16.797 3.761-6.786-.009-12.669-1.665-17.983-5.06-12.66-8.088-15.203-14.917-15.203-23.315v-52.183c0-4.142-3.357-7.5-7.5-7.5s-7.5 3.358-7.5 7.5v52.184c0 15.293 6.617 26.046 22.127 35.956 7.794 4.979 16.312 7.406 26.122 7.419 8.513 0 16.413-1.805 23.481-5.364 17.908-9.02 26.613-21.491 26.613-38.128v-112.126c0-4.136 3.364-7.5 7.5-7.5s7.5 3.364 7.5 7.5v112.125c0 22.538-11.731 39.874-34.867 51.525-9.181 4.623-19.351 6.967-30.227 6.967h-.104c-12.495-.017-23.966-3.307-34.095-9.779-19.82-12.663-29.052-28.104-29.052-48.596v-112.242c0-4.136 3.364-7.5 7.5-7.5s7.5 3.364 7.5 7.5v25.059c0 4.142 3.357 7.5 7.5 7.5s7.5-3.358 7.5-7.5v-25.059c0-12.407-10.094-22.5-22.5-22.5s-22.5 10.093-22.5 22.5v112.243c0 25.382 12.104 45.985 35.976 61.236 12.573 8.034 26.755 12.118 42.16 12.139h.114c13.241 0 25.681-2.883 36.974-8.57 35.639-17.949 43.12-45.212 43.12-64.922v-112.126c.001-12.407-10.093-22.5-22.499-22.5z"/><path d="m474.5 54h-437c-20.678 0-37.5 16.822-37.5 37.5v329c0 20.678 16.822 37.5 37.5 37.5h437c20.678 0 37.5-16.822 37.5-37.5v-329c0-20.678-16.822-37.5-37.5-37.5zm0 389h-437c-12.406 0-22.5-10.093-22.5-22.5v-262h423c4.143 0 7.5-3.358 7.5-7.5s-3.357-7.5-7.5-7.5h-423v-52c0-12.407 10.094-22.5 22.5-22.5h437c12.406 0 22.5 10.093 22.5 22.5v52h-24c-4.143 0-7.5 3.358-7.5 7.5s3.357 7.5 7.5 7.5h24v262c0 12.407-10.094 22.5-22.5 22.5z"/></g></g></svg>